<svg xmlns="http://www.w3.org/2000/svg" width="39.666" height="46.214" fill="none" overflow="visible"><path d="M 19.429 0.017 C 18.484 0.114 17.545 0.53 16.866 1.154 C 16.798 1.219 16.327 1.648 15.817 2.112 C 15.307 2.573 14.751 3.08 14.582 3.236 C 14.413 3.389 14.176 3.603 14.059 3.707 C 13.942 3.814 12.633 5 11.152 6.349 C 9.67 7.697 8.078 9.142 7.614 9.565 C 7.149 9.987 6.75 10.351 6.724 10.374 C 6.701 10.396 5.743 11.267 4.599 12.307 C 1.038 15.539 1.155 15.425 0.788 15.987 C 0.444 16.517 0.194 17.144 0.07 17.787 C 0.015 18.083 0.012 18.625 0.002 29.791 C -0.004 37.458 0.005 41.6 0.025 41.818 C 0.142 42.978 0.584 43.933 1.389 44.762 C 2.13 45.525 3.072 46.009 4.128 46.165 C 4.404 46.207 6.477 46.214 19.858 46.214 C 34.975 46.214 35.277 46.214 35.641 46.152 C 36.342 46.032 36.904 45.808 37.509 45.411 C 37.905 45.148 38.412 44.68 38.681 44.329 C 39.023 43.878 39.321 43.283 39.484 42.721 C 39.656 42.127 39.663 42.013 39.663 39.346 L 39.663 36.883 L 39.25 36.903 C 39.019 36.916 37.811 36.968 36.56 37.02 C 35.309 37.072 33.776 37.14 33.149 37.166 C 32.525 37.192 31.157 37.25 30.111 37.296 C 29.065 37.338 28.016 37.384 27.775 37.397 L 27.343 37.419 L 25.68 38.238 C 24.163 38.989 23.724 39.196 23.38 39.339 C 23.312 39.365 23.256 39.401 23.256 39.414 C 23.256 39.427 23.286 39.534 23.325 39.651 C 23.435 40.009 23.747 41.181 23.796 41.432 C 23.854 41.734 23.854 41.981 23.792 42.263 C 23.676 42.812 23.312 43.335 22.847 43.618 C 22.652 43.738 21.954 44.005 21.44 44.154 C 20.245 44.502 18.929 43.94 18.354 42.835 C 18.231 42.601 18.143 42.344 17.688 40.886 L 17.552 40.447 L 17.795 40.441 C 19.179 40.398 20.209 40.165 20.989 39.713 C 22.464 38.862 22.873 37.624 22.149 36.195 C 22.077 36.055 21.96 35.853 21.889 35.75 L 21.759 35.558 L 21.791 35.311 C 21.85 34.898 21.837 34.122 21.762 33.781 C 21.619 33.105 21.307 32.563 20.891 32.273 L 20.817 32.221 L 20.856 31.705 C 20.878 31.419 20.898 31.182 20.904 31.175 C 20.911 31.169 21.09 31.283 21.304 31.425 C 21.833 31.783 22.558 32.13 23.282 32.374 C 23.607 32.485 23.89 32.569 23.909 32.563 C 23.939 32.553 24.212 31.981 24.192 31.968 C 24.186 31.965 23.971 31.89 23.714 31.806 C 22.746 31.477 21.856 30.958 21.21 30.34 C 20.583 29.739 20.199 29.216 19.754 28.352 C 19.569 27.995 19.501 27.891 19.462 27.904 C 19.429 27.91 18.965 27.982 18.426 28.057 L 17.441 28.196 L 17.451 29.025 L 17.457 29.856 L 17.35 30.074 C 17.172 30.438 16.814 30.707 16.34 30.834 C 16.239 30.86 16.002 30.893 15.814 30.902 C 15.498 30.919 15.469 30.915 15.446 30.86 C 15.43 30.828 15.359 30.623 15.281 30.409 C 15.203 30.194 15.063 29.814 14.972 29.564 C 14.881 29.314 14.754 28.976 14.696 28.817 C 14.638 28.654 14.488 28.255 14.368 27.923 C 14.033 27.023 14.056 26.858 14.547 26.448 L 14.806 26.234 L 14.293 25.188 C 14.011 24.61 13.549 23.671 13.267 23.099 C 12.987 22.527 12.662 21.864 12.545 21.627 C 12.389 21.312 12.311 21.185 12.25 21.153 C 12.201 21.13 11.847 20.974 11.464 20.812 C 10.534 20.412 10.352 20.325 10.083 20.143 C 9.732 19.899 9.589 19.776 9.362 19.493 C 9.17 19.256 8.897 18.778 8.897 18.674 C 8.897 18.622 8.878 18.622 8.299 18.664 C 7.555 18.72 6.867 18.84 6.347 19.012 C 6.077 19.1 5.668 19.288 5.583 19.363 C 5.531 19.408 4.3 19.509 3.793 19.509 C 3.319 19.509 2.932 19.317 2.786 19.009 C 2.731 18.892 2.364 17.293 2.26 16.725 C 2.214 16.459 2.26 16.299 2.448 16.114 C 2.663 15.9 2.851 15.858 3.965 15.77 L 4.898 15.698 L 5.07 15.767 C 5.82 16.069 6.925 16.091 7.724 15.815 C 7.89 15.76 7.903 15.75 7.965 15.578 C 8.075 15.27 8.241 15.088 8.458 15.029 C 8.595 14.993 10.226 14.675 12.146 14.308 C 12.422 14.256 12.789 14.184 12.958 14.149 C 13.127 14.116 13.653 14.012 14.127 13.921 C 14.602 13.83 15.164 13.723 15.378 13.678 C 17.081 13.33 18.523 13.356 20.147 13.762 C 21.336 14.058 22.548 14.633 23.468 15.331 C 23.676 15.487 24.27 16.013 24.377 16.134 C 24.861 16.679 25.079 16.969 25.345 17.436 C 25.599 17.875 25.878 18.534 25.81 18.534 C 25.803 18.534 25.501 18.593 25.137 18.668 C 24.332 18.827 24.007 18.853 23.698 18.781 C 23.208 18.664 22.873 18.427 22.542 17.953 C 22.36 17.693 21.918 17.235 21.616 16.998 C 21.301 16.751 20.771 16.436 20.365 16.254 C 19.381 15.819 18.14 15.611 17.623 15.799 C 17.263 15.932 17.022 16.13 16.879 16.413 C 16.821 16.524 16.824 16.546 17.003 16.93 C 17.204 17.365 17.266 17.907 17.168 18.353 C 17.061 18.833 16.912 19.084 16.307 19.811 L 15.937 20.263 L 16.054 20.623 C 16.249 21.237 17.243 24.161 17.259 24.178 C 17.266 24.187 17.396 24.09 17.545 23.963 C 17.851 23.7 18.156 23.528 18.409 23.476 C 18.653 23.424 18.991 23.43 19.192 23.492 C 19.361 23.541 20.898 24.213 24.751 25.919 C 25.251 26.14 26.375 26.647 26.684 26.786 C 26.908 26.887 26.914 26.89 27.155 26.854 C 27.516 26.806 28.627 26.637 29.461 26.51 C 29.864 26.448 30.449 26.361 30.761 26.315 C 31.3 26.237 32.034 26.127 32.71 26.023 C 32.977 25.981 34.906 25.695 36.657 25.435 C 36.963 25.393 37.343 25.334 37.502 25.308 C 37.665 25.285 38.217 25.201 38.73 25.126 L 39.666 24.986 L 39.653 21.442 C 39.643 18.239 39.637 17.878 39.588 17.674 C 39.364 16.764 39.013 16.059 38.467 15.425 C 38.347 15.286 37.483 14.477 36.969 14.025 C 36.924 13.983 36.833 13.902 36.771 13.847 C 36.709 13.788 36.102 13.239 35.423 12.622 C 34.744 12.005 33.698 11.056 33.1 10.513 C 32.502 9.968 31.853 9.376 31.658 9.198 C 31.463 9.016 31.242 8.818 31.17 8.756 C 31.096 8.694 30.943 8.554 30.826 8.444 C 30.709 8.337 30.28 7.944 29.868 7.57 C 29.458 7.2 28.974 6.761 28.796 6.595 C 28.617 6.433 28.324 6.167 28.146 6.004 C 27.967 5.845 26.651 4.649 25.222 3.347 C 23.792 2.047 22.512 0.907 22.379 0.809 C 22.074 0.592 21.505 0.309 21.151 0.199 C 20.631 0.036 19.952 -0.035 19.429 0.017 Z M 13.231 26.744 C 13.244 26.796 13.423 27.381 13.63 28.047 C 13.838 28.713 14.001 29.262 13.994 29.268 C 13.988 29.272 13.449 29.346 12.796 29.431 C 12.143 29.515 11.571 29.593 11.522 29.603 L 11.431 29.619 L 11.431 29.382 C 11.431 28.943 11.558 28.378 11.743 27.972 C 12.003 27.404 12.36 27.036 12.925 26.751 C 13.153 26.634 13.205 26.634 13.231 26.744 Z M 19.413 29.986 C 19.54 30.025 19.615 30.074 19.725 30.197 C 19.897 30.386 19.91 30.444 19.91 30.951 C 19.91 31.299 19.9 31.357 19.829 31.513 C 19.738 31.705 19.54 31.9 19.364 31.974 C 19.299 32 18.832 32.111 18.322 32.215 C 17.812 32.322 17.042 32.481 16.613 32.572 C 16.184 32.663 15.489 32.806 15.07 32.894 C 14.647 32.982 14.196 33.076 14.063 33.105 C 13.273 33.274 13.14 33.29 12.99 33.251 C 12.896 33.225 12.799 33.164 12.711 33.076 C 12.584 32.949 12.558 32.894 12.305 32.114 C 12.159 31.659 12.039 31.24 12.039 31.185 C 12.042 31.084 12.12 30.899 12.191 30.831 C 12.298 30.72 12.458 30.672 13.107 30.539 C 13.497 30.461 13.92 30.373 14.046 30.347 C 14.17 30.318 14.283 30.308 14.293 30.321 C 14.303 30.334 14.41 30.548 14.527 30.798 C 14.644 31.049 14.806 31.393 14.888 31.565 L 15.034 31.874 L 15.304 31.848 C 15.94 31.789 16.713 31.617 17.168 31.432 C 17.503 31.296 17.727 31.153 17.906 30.964 C 18.023 30.837 18.052 30.769 18.156 30.366 C 18.198 30.204 18.361 30.029 18.517 29.98 C 18.685 29.925 19.222 29.931 19.413 29.986 Z M 19.959 33.06 C 20.209 33.154 20.459 33.391 20.579 33.648 C 20.664 33.83 20.674 33.888 20.674 34.161 C 20.674 34.431 20.664 34.492 20.583 34.651 C 20.453 34.921 20.264 35.116 20.027 35.233 C 19.819 35.337 19.634 35.373 18.14 35.603 C 17.838 35.652 17.457 35.711 17.295 35.737 C 15.58 36.013 14.706 36.143 14.566 36.143 C 14.124 36.143 13.812 35.886 13.692 35.421 C 13.601 35.071 13.725 34.668 14.004 34.398 C 14.179 34.226 14.358 34.148 14.8 34.047 C 15.749 33.836 18.075 33.297 18.919 33.092 C 19.403 32.975 19.709 32.965 19.959 33.06 Z M 20.622 36.497 C 21.093 36.643 21.388 37.049 21.385 37.536 C 21.382 37.903 21.216 38.209 20.917 38.413 C 20.599 38.631 19.485 38.966 18.702 39.083 C 17.828 39.209 16.476 39.209 15.963 39.079 C 15.56 38.979 15.19 38.686 14.943 38.274 C 14.816 38.059 14.66 37.624 14.631 37.393 L 14.608 37.231 L 16.213 37.007 C 17.094 36.883 18.341 36.705 18.984 36.61 C 19.628 36.519 20.216 36.442 20.29 36.438 C 20.362 36.435 20.515 36.464 20.622 36.497 Z" fill="rgb(8, 84, 156)"></path></svg>